<?xml version="1.0" standalone="no"?>
<!DOCTYPE svg PUBLIC "-//W3C//DTD SVG 20010904//EN"
 "http://www.w3.org/TR/2001/REC-SVG-20010904/DTD/svg10.dtd">
<svg version="1.0" xmlns="http://www.w3.org/2000/svg"
 width="512.000000pt" height="512.000000pt" viewBox="0 0 512.000000 512.000000"
 preserveAspectRatio="xMidYMid meet">
<metadata>
Created by potrace 1.14, written by Peter Selinger 2001-2017
</metadata>
<g transform="translate(0.000000,512.000000) scale(0.100000,-0.100000)"
fill="#000000" stroke="none">
<path d="M2585 5094 l-25 -27 0 -286 c0 -312 1 -320 57 -338 16 -5 151 -9 302
-8 l273 1 29 32 c16 18 29 27 29 20 0 -8 11 -22 24 -32 l25 -18 -27 -23 -27
-23 -3 -269 c-2 -147 0 -283 3 -301 4 -22 16 -39 37 -52 29 -17 53 -19 302
-18 289 0 317 5 332 50 6 22 7 22 20 -4 23 -45 49 -48 347 -46 l279 3 24 29
25 28 -3 289 c-3 284 -3 289 -26 311 -22 22 -27 23 -308 25 -276 3 -287 2
-315 -18 -16 -11 -29 -30 -29 -42 -1 -18 -3 -17 -14 9 -8 17 -22 34 -32 38
-18 7 -18 8 2 25 41 33 42 47 40 331 -2 285 -5 308 -46 330 -11 6 -128 10
-302 10 -272 0 -285 -1 -306 -20 -12 -12 -22 -26 -22 -33 0 -7 -12 2 -26 18
l-26 30 -294 3 -294 3 -25 -27z"/>
<path d="M1664 3832 c-5 -4 -18 -18 -27 -32 -15 -22 -17 -58 -17 -308 l0 -284
28 -26 27 -25 -27 -28 -28 -27 0 -284 c0 -305 2 -317 54 -338 16 -7 17 -9 4
-9 -9 -1 -26 -14 -37 -30 -20 -28 -21 -42 -21 -311 l0 -282 29 -29 29 -29 276
0 c158 0 286 4 301 10 48 18 53 50 50 348 -2 270 -2 272 -25 297 -13 14 -31
25 -39 25 -9 0 -2 8 16 16 18 9 35 26 39 37 6 20 7 20 20 -4 23 -44 46 -47
324 -48 287 0 322 6 340 53 5 15 8 143 7 300 -2 261 -3 276 -23 302 l-21 28
-288 3 c-311 4 -325 2 -344 -50 l-8 -22 -7 22 c-4 11 -20 27 -37 36 -30 14
-30 15 -7 20 49 13 52 31 53 321 0 154 -4 282 -10 300 -17 53 -33 56 -340 56
-154 0 -285 -4 -291 -8z"/>
<path d="M219 2044 c-8 -3 -23 -18 -32 -33 -15 -26 -17 -64 -17 -311 l0 -282
28 -26 27 -27 -27 -27 -28 -27 0 -280 c0 -290 4 -325 42 -337 17 -5 16 -8 -12
-34 l-30 -28 0 -290 0 -289 26 -27 27 -26 289 0 290 0 28 30 c26 28 29 29 34
12 12 -38 47 -42 337 -42 l280 0 27 27 27 28 27 -28 26 -27 289 0 c277 0 290
1 311 20 12 12 22 26 22 31 0 6 13 -3 29 -20 l29 -31 292 0 292 0 29 31 c20
21 29 26 29 15 0 -8 13 -22 30 -31 24 -12 78 -15 311 -15 l281 0 26 28 25 27
28 -27 27 -28 287 0 287 0 27 28 28 27 25 -27 26 -28 289 0 290 0 27 26 26 27
0 279 c0 288 -3 308 -42 336 -17 13 -16 15 12 38 l30 26 0 285 c0 175 -4 292
-10 303 -22 41 -45 44 -324 46 -148 1 -280 -2 -295 -7 -15 -5 -34 -21 -43 -36
-15 -25 -16 -25 -22 -6 -3 11 -17 26 -31 33 l-25 13 22 11 c45 23 48 43 45
345 l-3 283 -29 24 c-29 23 -31 23 -312 24 l-284 1 -29 -29 -28 -29 0 -278
c-1 -299 3 -326 50 -341 l23 -7 -23 -8 c-12 -5 -27 -19 -33 -33 l-11 -24 -28
31 -28 32 -288 1 -288 2 -28 -29 -29 -29 -24 27 -23 28 -287 1 -288 1 -30 -26
-29 -27 -1 -282 c0 -293 3 -319 43 -338 15 -8 13 -13 -16 -42 -21 -19 -34 -27
-34 -18 0 7 -12 21 -26 31 -24 15 -60 17 -310 18 l-283 2 -25 -24 c-14 -14
-26 -32 -27 -40 0 -11 -3 -8 -9 6 -5 12 -21 29 -35 39 l-26 17 23 11 c45 22
47 43 44 336 -2 151 -6 282 -10 291 -4 9 -18 22 -32 30 l-25 13 24 13 c43 22
47 50 43 338 -2 149 -7 278 -11 288 -17 41 -47 45 -336 46 -265 1 -278 0 -303
-20 -14 -11 -26 -28 -26 -37 0 -12 -5 -9 -17 10 -9 14 -26 31 -37 36 -20 9
-555 14 -587 6z"/>
</g>
</svg>
